    <svg width="258" height="200" viewBox="0 0 258 200" fill="none" xmlns="http://www.w3.org/2000/svg">
    <g id="eigth">
    <path id="Union" fill-rule="evenodd" clip-rule="evenodd" d="M91 0H103H246H258V159H257.612C257.868 160.475 258 161.976 258 163.5C258 183.658 234.943 200 206.5 200C178.057 200 155 183.658 155 163.5C155 143.342 178.057 127 206.5 127C222.364 127 236.553 132.084 246 140.078V19H103V158.5V159H102.995C102.618 178.928 79.7071 195 51.5 195C23.0573 195 0 178.658 0 158.5C0 138.342 23.0573 122 51.5 122C67.3641 122 81.5529 127.084 91 135.078V0Z" fill="black"/>
    </g>
    </svg>
